<svg width="16" height="17" viewBox="0 0 16 17" fill="none" xmlns="http://www.w3.org/2000/svg">
<path d="M13.5 7.49438V4.49438" stroke="black" stroke-linecap="round" stroke-linejoin="round"/>
<path d="M15 5.99438H12" stroke="black" stroke-linecap="round" stroke-linejoin="round"/>
<path d="M10.5 1.99438V3.99438" stroke="black" stroke-linecap="round" stroke-linejoin="round"/>
<path d="M11.5 2.99438H9.5" stroke="black" stroke-linecap="round" stroke-linejoin="round"/>
<path d="M13.5436 10.0319C12.562 10.3072 11.5247 10.3162 10.5384 10.0581C9.55211 9.79991 8.65229 9.28387 7.93137 8.56295C7.21045 7.84203 6.69442 6.94222 6.43626 5.95591C6.1781 4.9696 6.18712 3.93235 6.46239 2.95068C5.49456 3.22007 4.61419 3.73832 3.90898 4.45383C3.20377 5.16934 2.69833 6.05712 2.44301 7.02876C2.18769 8.0004 2.19139 9.02198 2.45375 9.99174C2.71611 10.9615 3.22797 11.8456 3.93835 12.556C4.64872 13.2664 5.53282 13.7782 6.50259 14.0406C7.47235 14.3029 8.49393 14.3066 9.46556 14.0513C10.4372 13.796 11.325 13.2906 12.0405 12.5853C12.756 11.8801 13.2743 10.9998 13.5436 10.0319Z" stroke="black" stroke-linecap="round" stroke-linejoin="round"/>
</svg>
